<svg width="500" height="500" viewBox="0 0 500 500" fill="none" xmlns="http://www.w3.org/2000/svg">
<g opacity="0.6">
<path d="M265.99 341.014L209.823 318.397C209.715 317.01 209.715 315.618 209.823 314.232L209.641 306.602C209.641 301.251 209.278 295.932 208.975 290.581C208.975 290.125 208.792 289.487 208.308 289.456C207.823 289.426 207.611 290.156 207.611 290.703V311.83C207.788 314.015 207.499 316.212 206.763 318.275C203.733 324.75 200.886 333.231 197.977 339.706C196.744 341.951 195.856 344.37 195.342 346.881C195.076 349.267 195.552 351.677 196.705 353.781C198.753 357.037 201.7 359.624 205.188 361.229C207.975 362.84 221.88 371.23 221.88 371.23L265.142 346.029L265.99 341.014Z" fill="#07091B" stroke="white" stroke-width="0.5" stroke-linecap="round" stroke-linejoin="round"/>
<path d="M265.99 341.013C265.99 341.013 247.54 330.708 245.48 328.641C244.76 327.846 244.187 326.93 243.784 325.935C243.379 325.188 243.134 324.363 243.066 323.515C242.998 322.667 243.108 321.813 243.39 321.011L255.508 294.138V293.682V267.508C255.503 267.205 255.442 266.906 255.326 266.626C255.21 266.388 255.068 266.164 254.902 265.958C254.736 265.788 254.554 265.635 254.357 265.502C254.236 265.438 254.1 265.404 253.963 265.404C253.826 265.404 253.691 265.438 253.57 265.502L209.065 291.432C209.184 291.36 209.32 291.321 209.459 291.321C209.598 291.321 209.734 291.36 209.853 291.432C210.054 291.547 210.238 291.69 210.399 291.858C210.558 292.08 210.699 292.313 210.822 292.557C210.943 292.835 211.005 293.135 211.004 293.438L210.701 318.731V319.217C208.974 323.078 199.34 343.536 198.583 346.303C198.285 348.424 198.649 350.586 199.626 352.492C200.602 354.397 202.143 355.952 204.036 356.942C207.581 359.192 211.338 361.138 214.973 363.235L221.365 366.944L265.99 341.013Z" fill="#07091B" stroke="white" stroke-width="0.5" stroke-linecap="round" stroke-linejoin="round"/>
<path d="M139.507 375L135.963 372.902L135.902 233.309L139.477 235.376L139.507 375Z" fill="#07091B" stroke="white" stroke-width="0.5" stroke-linecap="round" stroke-linejoin="round"/>
<path d="M139.477 235.376L135.902 233.309L321.098 126L324.673 128.067L139.477 235.376Z" fill="#07091B" stroke="white" stroke-width="0.5" stroke-linecap="round" stroke-linejoin="round"/>
<path d="M324.673 128.067L324.733 267.69L139.507 375L139.477 235.376L324.673 128.067Z" fill="#07091B" stroke="white" stroke-width="0.5" stroke-linecap="round" stroke-linejoin="round"/>
<g style="mix-blend-mode:lighten" filter="url(#filter0_f_2732_137664)">
<ellipse cx="241.144" cy="248.82" rx="99.2649" ry="52.2908" transform="rotate(-29.5149 241.144 248.82)" fill="url(#paint0_linear_2732_137664)"/>
</g>
</g>
<path d="M317.409 242.891L149.916 340.082V253.314L317.409 156.123V242.891Z" fill="#07091B"/>
<g style="mix-blend-mode:multiply">
<path d="M227.083 208.543V295.311L317.409 242.891V156.123L227.083 208.543Z" fill="#07091B"/>
</g>
<path d="M149.901 237.839V255.201L317.424 157.995V140.647L149.901 237.839Z" fill="#07091B"/>
<path d="M327.492 248.683L159.999 345.874V259.106L327.492 161.915V248.683Z" fill="url(#paint1_linear_2732_137664)"/>
<path d="M159.984 243.631V260.993L327.506 163.802V146.44L159.984 243.631Z" fill="url(#paint2_linear_2732_137664)"/>
<path opacity="0.2" d="M331.074 290.071L329.341 289.069C328.184 288.374 327.149 287.491 326.278 286.456C325.142 285.158 324.216 283.689 323.534 282.101C322.763 280.434 322.345 278.625 322.306 276.788L322.393 238.303C322.35 236.392 321.917 234.509 321.121 232.772C320.382 231.138 319.409 229.622 318.232 228.272C317.313 227.207 316.23 226.295 315.025 225.572L301.852 217.921L275.561 233.28L288.735 240.916C289.938 241.642 291.016 242.559 291.927 243.631C293.108 244.978 294.082 246.495 294.817 248.131C295.607 249.87 296.04 251.751 296.088 253.662L296.001 292.147C296.037 293.983 296.45 295.792 297.215 297.46C297.91 299.04 298.835 300.508 299.959 301.815C300.842 302.839 301.881 303.716 303.036 304.414L304.77 305.415C305.486 305.943 306.331 306.267 307.216 306.354C308.1 306.441 308.991 306.287 309.796 305.909L336.101 290.55C335.297 290.927 334.407 291.082 333.523 290.998C332.639 290.913 331.794 290.593 331.074 290.071V290.071Z" fill="white"/>
<path opacity="0.2" d="M314.26 284.366C313.547 284.872 312.98 285.559 312.617 286.358C312.254 287.156 312.108 288.036 312.194 288.91V301.525C312.187 302.463 311.929 303.381 311.449 304.185C310.969 304.989 310.284 305.65 309.464 306.098L336.332 290.898C337.075 290.371 337.666 289.656 338.044 288.824C338.423 287.993 338.574 287.076 338.485 286.166V273.551C338.399 272.677 338.545 271.797 338.907 270.999C339.27 270.2 339.837 269.513 340.551 269.007L314.26 284.366Z" fill="white"/>
<path opacity="0.2" d="M345.563 269.181C344.818 268.637 343.941 268.303 343.025 268.214C342.108 268.124 341.184 268.283 340.348 268.672L314.26 284.365C315.024 283.908 315.903 283.682 316.792 283.713C317.68 283.743 318.542 284.03 319.273 284.539L343.83 298.781L370.135 283.422L345.563 269.181Z" fill="white"/>
<path opacity="0.2" d="M304.683 192.967L351.24 220.113C352.583 220.883 352.684 222.059 351.558 222.741L323.678 238.884C322.959 239.208 322.174 239.358 321.387 239.323C320.599 239.287 319.831 239.068 319.143 238.681L272.542 211.534C271.199 210.764 271.098 209.589 272.224 208.906L300.104 192.763C300.829 192.432 301.622 192.278 302.418 192.314C303.213 192.349 303.989 192.573 304.683 192.967V192.967Z" fill="white"/>
<path opacity="0.5" d="M346.314 220.578C346.483 220.658 346.632 220.775 346.749 220.921C346.867 221.067 346.95 221.237 346.993 221.42C346.999 221.585 346.955 221.748 346.867 221.888C346.779 222.027 346.652 222.137 346.502 222.204L344.667 223.264C344.224 223.467 343.739 223.562 343.253 223.542C342.766 223.521 342.29 223.386 341.865 223.148L335.177 219.272C335.009 219.19 334.862 219.072 334.744 218.926C334.627 218.781 334.543 218.611 334.498 218.43C334.493 218.265 334.537 218.102 334.624 217.962C334.712 217.822 334.839 217.712 334.989 217.646L336.824 216.571C337.268 216.372 337.752 216.278 338.239 216.299C338.725 216.319 339.2 216.452 339.626 216.688L346.314 220.578Z" fill="white"/>
<path opacity="0.5" d="M277.396 210.735L284.619 214.974C284.969 215.172 285.36 215.284 285.762 215.301C286.163 215.319 286.563 215.242 286.93 215.076L290.469 213.029C291.061 212.681 290.989 212.086 290.31 211.679L283.087 207.455C282.738 207.254 282.346 207.14 281.944 207.123C281.542 207.105 281.141 207.184 280.776 207.353L277.237 209.4C276.645 209.748 276.717 210.344 277.396 210.735Z" fill="white"/>
<path d="M317.424 140.647L327.506 146.44L159.984 243.631L149.901 237.839L317.424 140.647Z" fill="url(#paint3_linear_2732_137664)"/>
<path d="M159.999 345.874L149.916 340.082L149.901 255.201L159.984 260.993L159.999 345.874Z" fill="#9653F3"/>
<path d="M149.901 237.839V255.201L159.984 260.993V243.631L149.901 237.839Z" fill="url(#paint4_linear_2732_137664)"/>
<g style="mix-blend-mode:overlay">
<path opacity="0.2" d="M159.999 345.874L149.916 340.082L149.901 255.201L159.984 260.993L159.999 345.874Z" fill="#07091B"/>
<path opacity="0.1" d="M149.901 237.839V255.201L159.984 260.993V243.631L149.901 237.839Z" fill="#07091B"/>
</g>
<path opacity="0.2" d="M175.065 267.105V353.873L266.952 300.567V213.799L175.065 267.105Z" fill="white"/>
<defs>
<filter id="filter0_f_2732_137664" x="50.9779" y="82.02" width="380.332" height="333.6" filterUnits="userSpaceOnUse" color-interpolation-filters="sRGB">
<feFlood flood-opacity="0" result="BackgroundImageFix"/>
<feBlend mode="normal" in="SourceGraphic" in2="BackgroundImageFix" result="shape"/>
<feGaussianBlur stdDeviation="50" result="effect1_foregroundBlur_2732_137664"/>
</filter>
<linearGradient id="paint0_linear_2732_137664" x1="283.384" y1="204.317" x2="232.697" y2="320.256" gradientUnits="userSpaceOnUse">
<stop stop-color="#AC50EF"/>
<stop offset="0.46875" stop-color="#7059FB"/>
<stop offset="1" stop-color="#2ECFF6"/>
</linearGradient>
<linearGradient id="paint1_linear_2732_137664" x1="159.999" y1="345.874" x2="350.232" y2="186.229" gradientUnits="userSpaceOnUse">
<stop stop-color="#AC50EF"/>
<stop offset="0.46875" stop-color="#7059FB"/>
<stop offset="1" stop-color="#2ECFF6"/>
</linearGradient>
<linearGradient id="paint2_linear_2732_137664" x1="159.984" y1="260.993" x2="275.101" y2="105.828" gradientUnits="userSpaceOnUse">
<stop stop-color="#AC50EF"/>
<stop offset="0.46875" stop-color="#7059FB"/>
<stop offset="1" stop-color="#2ECFF6"/>
</linearGradient>
<linearGradient id="paint3_linear_2732_137664" x1="149.901" y1="243.631" x2="247.38" y2="88.6819" gradientUnits="userSpaceOnUse">
<stop stop-color="#AC50EF"/>
<stop offset="0.46875" stop-color="#7059FB"/>
<stop offset="1" stop-color="#2ECFF6"/>
</linearGradient>
<linearGradient id="paint4_linear_2732_137664" x1="149.901" y1="260.993" x2="209.096" y2="236.898" gradientUnits="userSpaceOnUse">
<stop stop-color="#AC50EF"/>
<stop offset="0.46875" stop-color="#7059FB"/>
<stop offset="1" stop-color="#2ECFF6"/>
</linearGradient>
</defs>
</svg>
